<svg width="65" height="64" viewBox="0 0 65 64" fill="none" xmlns="http://www.w3.org/2000/svg">
<rect x="0.724121" y="0.473694" width="63.3621" height="63.3621" rx="31.681" fill="white"/>
<path d="M27.1122 11.8788H13.4079V13.0074L13.7303 13.4911V16.4697C13.7303 16.8452 13.6586 17.2173 13.5192 17.566L13.2112 18.3358C12.9239 19.0541 12.9301 19.8565 13.2284 20.5703L17.0857 29.8002C17.2017 30.078 17.4733 30.2588 17.7743 30.2588C17.9723 30.2588 18.1621 30.1802 18.3021 30.0402L19.0117 29.3306C19.14 29.2023 19.314 29.1302 19.4954 29.1302H20.1794C20.5364 29.1302 20.7152 29.5618 20.4627 29.8142C20.3063 29.9707 20.3063 30.2244 20.4627 30.3809L21.3038 31.2219C21.7813 31.6995 21.4431 32.516 20.7678 32.516C20.7007 32.516 20.6365 32.4894 20.5891 32.442L19.716 31.5689C19.53 31.3829 19.212 31.5146 19.212 31.7776V33.1882C19.212 33.3512 19.3442 33.4834 19.5072 33.4834H21.308C21.9313 33.4834 22.4366 33.9886 22.4366 34.6119V35.0956C22.4366 35.4518 22.1479 35.7405 21.7917 35.7405C21.4355 35.7405 21.1468 36.0293 21.1468 36.3855V36.4246C21.1468 36.606 21.2188 36.78 21.3471 36.9083L24.5956 40.1568C24.7617 40.3228 24.855 40.5481 24.855 40.783V40.8555C24.855 41.0903 24.9483 41.3156 25.1144 41.4817L25.7242 42.0915C25.8903 42.2576 25.9836 42.4828 25.9836 42.7177V43.7498C25.9836 44.4019 26.5123 44.9305 27.1644 44.9305H30.3693C30.8856 44.9305 31.3041 45.349 31.3041 45.8653C31.3041 46.1959 31.4354 46.5129 31.6692 46.7466L32.63 47.7074C32.8547 47.9321 33.2389 47.773 33.2389 47.4552C33.2389 47.3075 33.3586 47.1877 33.5064 47.1877H34.1026C35.8516 47.1877 37.2696 48.6056 37.2696 50.3547V52.0245H45.0342C45.5602 52.0245 45.8236 51.3886 45.4517 51.0167L45.2064 50.7714C44.77 50.335 44.5248 49.7431 44.5248 49.1259V48.1752C44.5248 47.897 44.7504 47.6714 45.0286 47.6714C45.1956 47.6714 45.3309 47.536 45.3309 47.3691V46.7629C45.3309 46.2852 45.7182 45.8979 46.1959 45.8979C46.7097 45.8979 46.967 45.2767 46.6037 44.9135L27.1122 25.422V11.8788Z" fill="#E0D5C8"/>
<path d="M47.7432 18.6028C49.3028 18.682 50.543 19.9718 50.543 21.5511V22.7318H52.3135V32.1771H42.8682V22.7318H44.6396V21.5511C44.6396 19.9208 45.9615 18.5989 47.5918 18.5989L47.7432 18.6028ZM47.5908 25.0931C46.9389 25.0931 46.4103 25.6219 46.4102 26.2737C46.4102 26.678 46.614 27.0346 46.9238 27.2474L46.4102 29.8157H48.7715L48.2578 27.2464C48.5674 27.0336 48.7714 26.6778 48.7715 26.2737C48.7713 25.6219 48.2427 25.0931 47.5908 25.0931ZM47.5918 19.7796C46.6136 19.7796 45.8203 20.5729 45.8203 21.5511V22.7318H49.3623V21.5511C49.3623 20.5732 48.5696 19.78 47.5918 19.7796Z" fill="#E0D5C8"/>
<path d="M23.5282 35.1004C22.9833 35.1004 22.5208 34.9579 22.1406 34.6727C21.7668 34.3876 21.4816 33.9821 21.2852 33.4562C21.0888 32.9303 20.9906 32.3062 20.9906 31.5838C20.9906 30.8552 21.0888 30.2279 21.2852 29.702C21.4816 29.1761 21.7668 28.7706 22.1406 28.4854C22.5208 28.194 22.9833 28.0482 23.5282 28.0482C24.1428 28.0482 24.6592 28.251 25.0774 28.6565C25.502 29.062 25.7808 29.6291 25.9138 30.3578L24.8683 30.4148C24.7733 29.9459 24.6054 29.5911 24.3646 29.3503C24.1302 29.1032 23.8514 28.9797 23.5282 28.9797C23.1987 28.9797 22.9231 29.081 22.7014 29.2838C22.4796 29.4866 22.3117 29.7812 22.1976 30.1677C22.0836 30.5542 22.0265 31.0263 22.0265 31.5838C22.0265 32.1351 22.0836 32.604 22.1976 32.9905C22.3117 33.3706 22.4796 33.6621 22.7014 33.8649C22.9231 34.0676 23.1987 34.169 23.5282 34.169C23.8767 34.169 24.1745 34.036 24.4216 33.7698C24.6687 33.5037 24.8335 33.114 24.9159 32.6008L25.9518 32.6483C25.8378 33.4213 25.5685 34.0233 25.144 34.4541C24.7194 34.885 24.1809 35.1004 23.5282 35.1004ZM29.2271 35.1004C28.6822 35.1004 28.2196 34.9579 27.8395 34.6727C27.4656 34.3876 27.1805 33.9821 26.9841 33.4562C26.7877 32.9303 26.6895 32.3062 26.6895 31.5838C26.6895 30.8552 26.7877 30.2279 26.9841 29.702C27.1805 29.1761 27.4656 28.7706 27.8395 28.4854C28.2196 28.194 28.6822 28.0482 29.2271 28.0482C29.8417 28.0482 30.3581 28.251 30.7763 28.6565C31.2008 29.062 31.4796 29.6291 31.6127 30.3578L30.5672 30.4148C30.4722 29.9459 30.3043 29.5911 30.0635 29.3503C29.829 29.1032 29.5502 28.9797 29.2271 28.9797C28.8976 28.9797 28.622 29.081 28.4002 29.2838C28.1785 29.4866 28.0106 29.7812 27.8965 30.1677C27.7824 30.5542 27.7254 31.0263 27.7254 31.5838C27.7254 32.1351 27.7824 32.604 27.8965 32.9905C28.0106 33.3706 28.1785 33.6621 28.4002 33.8649C28.622 34.0676 28.8976 34.169 29.2271 34.169C29.5756 34.169 29.8734 34.036 30.1205 33.7698C30.3676 33.5037 30.5324 33.114 30.6147 32.6008L31.6507 32.6483C31.5366 33.4213 31.2674 34.0233 30.8428 34.4541C30.4183 34.885 29.8797 35.1004 29.2271 35.1004ZM32.8635 34.9484V28.2003H34.9545C35.4234 28.2003 35.8321 28.2858 36.1805 28.4569C36.5354 28.628 36.8078 28.8719 36.9979 29.1888C37.1943 29.4992 37.2925 29.8699 37.2925 30.3008C37.2925 30.7316 37.1943 31.1055 36.9979 31.4223C36.8078 31.7327 36.5354 31.9735 36.1805 32.1446C35.8321 32.3093 35.4234 32.3917 34.9545 32.3917H33.8615V34.9484H32.8635ZM33.8615 31.4508H34.8499C35.3315 31.4508 35.6863 31.3526 35.9144 31.1561C36.1425 30.9597 36.2566 30.6746 36.2566 30.3008C36.2566 29.9206 36.1425 29.6323 35.9144 29.4359C35.6863 29.2394 35.3315 29.1412 34.8499 29.1412H33.8615V31.4508ZM37.9731 34.9484L39.95 28.2003H41.2426L43.2195 34.9484H42.1836L40.5963 29.2363L39.0091 34.9484H37.9731ZM39.0756 33.1901L39.3798 32.2681H41.8129L42.117 33.1901H39.0756Z" fill="#363338"/>
</svg>
