<svg width="64" height="64" viewBox="0 0 64 64" fill="none" xmlns="http://www.w3.org/2000/svg">
<rect x="0.362061" y="0.473694" width="63.3621" height="63.3621" rx="31.681" fill="white"/>
<path d="M22.8533 35.3369C22.3654 35.3369 21.9345 35.2039 21.5607 34.9378C21.1868 34.6716 20.8922 34.2788 20.6768 33.7592C20.4614 33.2333 20.3536 32.587 20.3536 31.8203C20.3536 31.0917 20.455 30.4644 20.6578 29.9385C20.8605 29.4126 21.1488 29.0071 21.5227 28.7219C21.9028 28.4305 22.3559 28.2847 22.8818 28.2847C23.3063 28.2847 23.6801 28.3766 24.0033 28.5604C24.3264 28.7441 24.5957 29.0039 24.8112 29.3397C25.0329 29.6755 25.1913 30.0684 25.2864 30.5183L24.2504 30.5848C24.1554 30.1729 23.9938 29.8435 23.7657 29.5963C23.5439 29.3492 23.2525 29.2257 22.8913 29.2257C22.5745 29.2257 22.302 29.3271 22.0739 29.5298C21.8522 29.7262 21.6811 30.0177 21.5607 30.4042C21.4466 30.7907 21.3896 31.2628 21.3896 31.8203C21.3896 32.3716 21.4498 32.8405 21.5702 33.227C21.6906 33.6072 21.8648 33.8986 22.0929 34.1014C22.3274 34.2978 22.6093 34.396 22.9388 34.396C23.2303 34.396 23.4806 34.3232 23.6897 34.1774C23.8987 34.0253 24.0603 33.8163 24.1744 33.5501C24.2948 33.2777 24.3613 32.964 24.374 32.6092H22.8913V31.7443H25.2959V35.1849H24.488L24.4405 33.6357L24.6971 33.6262C24.6274 33.9493 24.5134 34.2408 24.355 34.5006C24.2029 34.7603 24.0033 34.9663 23.7562 35.1183C23.5091 35.2641 23.2081 35.3369 22.8533 35.3369ZM26.4992 35.1849V28.4368H28.1435C28.7391 28.4368 29.2555 28.5699 29.6927 28.836C30.1362 29.0958 30.4752 29.4791 30.7096 29.986C30.9504 30.4866 31.0708 31.098 31.0708 31.8203C31.0708 32.5427 30.9504 33.1541 30.7096 33.6547C30.4752 34.1552 30.1362 34.5354 29.6927 34.7952C29.2555 35.055 28.7391 35.1849 28.1435 35.1849H26.4992ZM27.4972 34.2439H28.1149C28.7296 34.2439 29.2016 34.0444 29.5311 33.6452C29.8669 33.2397 30.0348 32.6314 30.0348 31.8203C30.0348 31.0093 29.8669 30.401 29.5311 29.9955C29.2016 29.5837 28.7296 29.3777 28.1149 29.3777H27.4972V34.2439ZM32.2266 35.1849V28.4368H34.3175C34.7864 28.4368 35.1951 28.5224 35.5436 28.6934C35.8984 28.8645 36.1709 29.1085 36.361 29.4253C36.5574 29.7357 36.6556 30.1064 36.6556 30.5373C36.6556 30.9681 36.5574 31.342 36.361 31.6588C36.1709 31.9693 35.8984 32.21 35.5436 32.3811C35.1951 32.5458 34.7864 32.6282 34.3175 32.6282H33.2246V35.1849H32.2266ZM33.2246 31.6873H34.213C34.6946 31.6873 35.0494 31.5891 35.2775 31.3927C35.5056 31.1962 35.6196 30.9111 35.6196 30.5373C35.6196 30.1571 35.5056 29.8688 35.2775 29.6724C35.0494 29.476 34.6946 29.3777 34.213 29.3777H33.2246V31.6873ZM37.7449 35.1849V28.4368H39.8453C40.5613 28.4368 41.1221 28.6174 41.5276 28.9786C41.9395 29.3397 42.1454 29.8308 42.1454 30.4517C42.1454 30.7749 42.0725 31.06 41.9268 31.3071C41.7874 31.5542 41.6005 31.7475 41.366 31.8869C41.1379 32.0263 40.894 32.1055 40.6342 32.1245L40.5962 32.0104C41.0651 32.0294 41.4136 32.1372 41.6417 32.3336C41.8761 32.5237 42.0123 32.8341 42.0503 33.265L42.2214 35.1849H41.2235L41.0714 33.4551C41.0524 33.2333 41.0049 33.0559 40.9288 32.9228C40.8528 32.7898 40.7356 32.6947 40.5772 32.6377C40.4188 32.5807 40.2002 32.5522 39.9214 32.5522H38.7428V35.1849H37.7449ZM38.7428 31.6208H39.8263C40.2445 31.6208 40.5645 31.5225 40.7863 31.3261C41.008 31.1297 41.1189 30.8541 41.1189 30.4993C41.1189 30.1381 41.008 29.8625 40.7863 29.6724C40.5645 29.476 40.2445 29.3777 39.8263 29.3777H38.7428V31.6208Z" fill="#363338"/>
<path d="M31.7264 4.90906L32.6232 7.66899H35.5251L33.1774 9.37473L34.0741 12.1347L31.7264 10.4289L29.3787 12.1347L30.2754 9.37473L27.9277 7.66899H30.8296L31.7264 4.90906Z" fill="#E0D5C8"/>
<path d="M31.7264 49.511L32.6232 52.2709H35.5251L33.1774 53.9767L34.0741 56.7366L31.7264 55.0309L29.3787 56.7366L30.2754 53.9767L27.9277 52.2709H30.8296L31.7264 49.511Z" fill="#E0D5C8"/>
<path d="M54.0274 28.8743L54.9242 31.6342H57.8261L55.4784 33.3399L56.3752 36.0999L54.0274 34.3941L51.6797 36.0999L52.5764 33.3399L50.2287 31.6342H53.1307L54.0274 28.8743Z" fill="#E0D5C8"/>
<path d="M43.7088 47.8468L44.6056 50.6067H47.5075L45.1598 52.3125L46.0566 55.0724L43.7088 53.3667L41.3611 55.0724L42.2578 52.3125L39.9101 50.6067H42.8121L43.7088 47.8468Z" fill="#E0D5C8"/>
<path d="M19.7436 47.8468L18.8468 50.6067H15.9449L18.2926 52.3125L17.3958 55.0724L19.7436 53.3667L22.0913 55.0724L21.1946 52.3125L23.5423 50.6067H20.6403L19.7436 47.8468Z" fill="#E0D5C8"/>
<path d="M43.7088 9.90179L44.6056 12.6617H47.5075L45.1598 14.3675L46.0566 17.1274L43.7088 15.4217L41.3611 17.1274L42.2578 14.3675L39.9101 12.6617H42.8121L43.7088 9.90179Z" fill="#E0D5C8"/>
<path d="M19.7436 9.90179L18.8468 12.6617H15.9449L18.2926 14.3675L17.3958 17.1274L19.7436 15.4217L22.0913 17.1274L21.1946 14.3675L23.5423 12.6617H20.6403L19.7436 9.90179Z" fill="#E0D5C8"/>
<path d="M51.0316 38.8599L51.9283 41.6198H54.8303L52.4826 43.3255L53.3793 46.0855L51.0316 44.3797L48.6838 46.0855L49.5806 43.3255L47.2328 41.6198H50.1348L51.0316 38.8599Z" fill="#E0D5C8"/>
<path d="M12.4208 38.8599L11.5241 41.6198H8.6221L10.9698 43.3255L10.0731 46.0855L12.4208 44.3797L14.7686 46.0855L13.8718 43.3255L16.2195 41.6198H13.3176L12.4208 38.8599Z" fill="#E0D5C8"/>
<path d="M51.0316 18.8889L51.9283 21.6488H54.8303L52.4826 23.3545L53.3793 26.1145L51.0316 24.4087L48.6838 26.1145L49.5806 23.3545L47.2328 21.6488H50.1348L51.0316 18.8889Z" fill="#E0D5C8"/>
<path d="M12.4208 18.8889L11.5241 21.6488H8.6221L10.9698 23.3545L10.0731 26.1145L12.4208 24.4087L14.7686 26.1145L13.8718 23.3545L16.2195 21.6488H13.3176L12.4208 18.8889Z" fill="#E0D5C8"/>
<path d="M9.42512 28.8743L10.3219 31.6342H13.2238L10.8761 33.3399L11.7729 36.0999L9.42512 34.3941L7.07738 36.0999L7.97414 33.3399L5.6264 31.6342H8.52837L9.42512 28.8743Z" fill="#E0D5C8"/>
</svg>
