<svg width="64" height="64" viewBox="0 0 64 64" fill="none" xmlns="http://www.w3.org/2000/svg">
<rect y="0.473694" width="63.3621" height="63.3621" rx="31.681" fill="white"/>
<path d="M17.868 28.3832L19.8449 21.6351H21.1375L23.1144 28.3832H22.0784L20.4912 22.6711L18.904 28.3832H17.868ZM18.9705 26.6249L19.2746 25.703H21.7078L22.0119 26.6249H18.9705ZM24.0801 28.3832V27.4423H25.6958V22.576H24.0801V21.6351H28.3V22.576H26.6843V27.4423H28.3V28.3832H24.0801ZM31.9175 28.5352C31.3725 28.5352 30.91 28.3927 30.5298 28.1076C30.156 27.8224 29.8709 27.4169 29.6744 26.891C29.478 26.3651 29.3798 25.741 29.3798 25.0187C29.3798 24.29 29.478 23.6627 29.6744 23.1368C29.8709 22.6109 30.156 22.2054 30.5298 21.9202C30.91 21.6288 31.3725 21.483 31.9175 21.483C32.5321 21.483 33.0485 21.6858 33.4667 22.0913C33.8912 22.4968 34.17 23.0639 34.303 23.7926L33.2576 23.8496C33.1625 23.3807 32.9946 23.0259 32.7538 22.7851C32.5194 22.538 32.2406 22.4145 31.9175 22.4145C31.588 22.4145 31.3124 22.5159 31.0906 22.7186C30.8688 22.9214 30.7009 23.216 30.5869 23.6025C30.4728 23.989 30.4158 24.4611 30.4158 25.0187C30.4158 25.5699 30.4728 26.0388 30.5869 26.4253C30.7009 26.8055 30.8688 27.0969 31.0906 27.2997C31.3124 27.5024 31.588 27.6038 31.9175 27.6038C32.2659 27.6038 32.5638 27.4708 32.8109 27.2046C33.058 26.9385 33.2227 26.5488 33.3051 26.0356L34.3411 26.0831C34.227 26.8562 33.9577 27.4581 33.5332 27.889C33.1087 28.3198 32.5701 28.5352 31.9175 28.5352ZM35.5539 28.3832V21.6351H37.6448C38.1137 21.6351 38.5224 21.7207 38.8709 21.8917C39.2257 22.0628 39.4982 22.3068 39.6883 22.6236C39.8847 22.934 39.9829 23.3047 39.9829 23.7356C39.9829 24.1664 39.8847 24.5403 39.6883 24.8571C39.4982 25.1676 39.2257 25.4083 38.8709 25.5794C38.5224 25.7441 38.1137 25.8265 37.6448 25.8265H36.5518V28.3832H35.5539ZM36.5518 24.8856H37.5403C38.0219 24.8856 38.3767 24.7874 38.6048 24.591C38.8329 24.3945 38.9469 24.1094 38.9469 23.7356C38.9469 23.3554 38.8329 23.0671 38.6048 22.8707C38.3767 22.6743 38.0219 22.576 37.5403 22.576H36.5518V24.8856ZM40.6635 28.3832L42.6404 21.6351H43.933L45.9099 28.3832H44.8739L43.2867 22.6711L41.6995 28.3832H40.6635ZM41.766 26.6249L42.0701 25.703H44.5032L44.8074 26.6249H41.766Z" fill="#363338"/>
<path d="M23.4262 42.6925C22.9383 42.6925 22.5106 42.5943 22.1431 42.3978C21.7819 42.2014 21.4936 41.929 21.2782 41.5805C21.0628 41.2256 20.936 40.8138 20.898 40.3449L21.9245 40.2784C21.9688 40.6015 22.0576 40.874 22.1906 41.0957C22.3237 41.3175 22.4979 41.4854 22.7134 41.5995C22.9288 41.7072 23.1791 41.7611 23.4642 41.7611C23.743 41.7611 23.9774 41.7262 24.1675 41.6565C24.3576 41.5805 24.5033 41.4728 24.6047 41.3334C24.7061 41.194 24.7568 41.0261 24.7568 40.8296C24.7568 40.6269 24.7093 40.4495 24.6142 40.2974C24.5192 40.1453 24.3481 40.0059 24.101 39.8792C23.8539 39.7525 23.4927 39.6226 23.0175 39.4895C22.5549 39.3628 22.1779 39.2202 21.8865 39.0618C21.595 38.9034 21.3827 38.707 21.2497 38.4726C21.1166 38.2381 21.0501 37.9467 21.0501 37.5982C21.0501 37.2117 21.1388 36.8727 21.3162 36.5812C21.5 36.2834 21.7598 36.0521 22.0956 35.8874C22.4377 35.7226 22.8464 35.6403 23.3216 35.6403C23.7905 35.6403 24.1897 35.7322 24.5192 35.9159C24.855 36.0997 25.1179 36.3563 25.308 36.6857C25.5045 37.0089 25.6248 37.3891 25.6692 37.8263L24.6427 37.8833C24.611 37.6235 24.5382 37.3954 24.4241 37.199C24.3164 37.0026 24.1675 36.8505 23.9774 36.7428C23.7873 36.6287 23.5592 36.5717 23.2931 36.5717C22.9193 36.5717 22.6215 36.6636 22.3997 36.8473C22.1843 37.0247 22.0766 37.2592 22.0766 37.5506C22.0766 37.7471 22.1209 37.9086 22.2096 38.0354C22.2983 38.1621 22.4536 38.2761 22.6753 38.3775C22.8971 38.4789 23.2076 38.5834 23.6068 38.6912C24.1453 38.8369 24.573 39.0048 24.8898 39.1949C25.2066 39.385 25.4348 39.6131 25.5741 39.8792C25.7135 40.1453 25.7832 40.4621 25.7832 40.8296C25.7832 41.1971 25.685 41.5234 25.4886 41.8086C25.2922 42.0874 25.0166 42.306 24.6617 42.4644C24.3132 42.6164 23.9014 42.6925 23.4262 42.6925ZM29.0395 42.6925C28.5009 42.6925 28.0447 42.5562 27.6709 42.2838C27.3034 42.0113 27.0214 41.6122 26.825 41.0862C26.6286 40.5603 26.5304 39.9236 26.5304 39.1759C26.5304 38.4155 26.6286 37.7724 26.825 37.2465C27.0214 36.7206 27.3034 36.3214 27.6709 36.049C28.0447 35.7765 28.5009 35.6403 29.0395 35.6403C29.5781 35.6403 30.0343 35.7765 30.4081 36.049C30.782 36.3214 31.0639 36.7206 31.254 37.2465C31.4504 37.7724 31.5486 38.4155 31.5486 39.1759C31.5486 39.9236 31.4504 40.5603 31.254 41.0862C31.0639 41.6122 30.782 42.0113 30.4081 42.2838C30.0343 42.5562 29.5781 42.6925 29.0395 42.6925ZM29.0395 41.7611C29.3563 41.7611 29.6224 41.666 29.8379 41.4759C30.0596 41.2858 30.2275 40.9975 30.3416 40.611C30.4557 40.2245 30.5127 39.7461 30.5127 39.1759C30.5127 38.6056 30.4557 38.1272 30.3416 37.7407C30.2275 37.3479 30.0596 37.0564 29.8379 36.8663C29.6224 36.6699 29.3563 36.5717 29.0395 36.5717C28.7227 36.5717 28.4534 36.6699 28.2316 36.8663C28.0162 37.0564 27.8515 37.3479 27.7374 37.7407C27.6234 38.1272 27.5663 38.6056 27.5663 39.1759C27.5663 39.7461 27.6234 40.2245 27.7374 40.611C27.8515 40.9975 28.0162 41.2858 28.2316 41.4759C28.4534 41.666 28.7227 41.7611 29.0395 41.7611ZM34.7669 42.6925C34.222 42.6925 33.7594 42.5499 33.3793 42.2648C33.0054 41.9797 32.7203 41.5741 32.5239 41.0482C32.3275 40.5223 32.2292 39.8982 32.2292 39.1759C32.2292 38.4472 32.3275 37.8199 32.5239 37.294C32.7203 36.7681 33.0054 36.3626 33.3793 36.0775C33.7594 35.786 34.222 35.6403 34.7669 35.6403C35.3815 35.6403 35.8979 35.843 36.3161 36.2486C36.7406 36.6541 37.0194 37.2212 37.1525 37.9498L36.107 38.0068C36.012 37.538 35.8441 37.1831 35.6033 36.9424C35.3688 36.6953 35.09 36.5717 34.7669 36.5717C34.4374 36.5717 34.1618 36.6731 33.94 36.8758C33.7183 37.0786 33.5503 37.3732 33.4363 37.7597C33.3222 38.1462 33.2652 38.6183 33.2652 39.1759C33.2652 39.7271 33.3222 40.196 33.4363 40.5825C33.5503 40.9627 33.7183 41.2542 33.94 41.4569C34.1618 41.6597 34.4374 41.7611 34.7669 41.7611C35.1154 41.7611 35.4132 41.628 35.6603 41.3619C35.9074 41.0957 36.0722 40.7061 36.1545 40.1928L37.1905 40.2404C37.0764 41.0134 36.8072 41.6153 36.3826 42.0462C35.9581 42.477 35.4195 42.6925 34.7669 42.6925ZM38.0422 42.5404C38.0422 42.0398 38.115 41.5931 38.2608 41.2003C38.4065 40.8075 38.6631 40.44 39.0306 40.0978C39.4045 39.7493 39.9209 39.4008 40.5798 39.0523C40.8649 38.9066 41.0962 38.7672 41.2736 38.6341C41.451 38.5011 41.5809 38.3585 41.6633 38.2064C41.7457 38.0544 41.7869 37.8706 41.7869 37.6552C41.7869 37.4334 41.7425 37.2433 41.6538 37.0849C41.5651 36.9265 41.432 36.803 41.2546 36.7143C41.0772 36.6192 40.8554 36.5717 40.5893 36.5717C40.1585 36.5717 39.8195 36.6857 39.5724 36.9139C39.3316 37.142 39.1795 37.4683 39.1162 37.8928L38.0802 37.8263C38.1499 37.161 38.4002 36.6319 38.831 36.239C39.2619 35.8399 39.848 35.6403 40.5893 35.6403C41.0709 35.6403 41.4764 35.7226 41.8059 35.8874C42.1417 36.0521 42.3951 36.2834 42.5662 36.5812C42.7373 36.879 42.8228 37.2243 42.8228 37.6172C42.8228 37.9657 42.7658 38.2666 42.6518 38.5201C42.5377 38.7735 42.3476 39.008 42.0815 39.2234C41.8154 39.4388 41.451 39.6701 40.9885 39.9172C40.602 40.1263 40.2789 40.3322 40.0191 40.535C39.7656 40.7314 39.5724 40.9215 39.4393 41.1053C39.3126 41.2827 39.2429 41.4474 39.2302 41.5995H42.8323V42.5404H38.0422Z" fill="#363338"/>
<path d="M17.73 31.8262H46.0442" stroke="#E0D5C8" stroke-width="0.294939"/>
<path d="M31.6809 6.98566C45.5812 6.98566 56.8498 18.2543 56.8499 32.1546C56.8499 46.055 45.5813 57.3235 31.6809 57.3235C17.7806 57.3235 6.51196 46.0549 6.51196 32.1546C6.51202 18.2543 17.7806 6.98571 31.6809 6.98566Z" stroke="#E0D5C8" stroke-width="0.352012"/>
</svg>
