<svg width="64" height="71" viewBox="0 0 64 71" fill="none" xmlns="http://www.w3.org/2000/svg">
<rect x="0.0861816" y="0.473694" width="63.3621" height="63.3621" rx="31.681" fill="white"/>
<g clip-path="url(#clip0_791_9968)">
<path d="M31.7676 55.5985V10.2946" stroke="#E0D5C8" stroke-width="0.704025"/>
<path d="M45.144 32.1547C45.144 39.1064 43.6169 45.3829 41.1655 49.9086C38.7066 54.4481 35.3676 57.1478 31.7671 57.1478C28.1666 57.1478 24.8285 54.448 22.3696 49.9086C19.9182 45.3829 18.3911 39.1065 18.3911 32.1547C18.3911 25.2028 19.9182 18.9264 22.3696 14.4008C24.8285 9.86142 28.1667 7.16153 31.7671 7.1615C35.3676 7.1615 38.7066 9.86121 41.1655 14.4008C43.6169 18.9264 45.144 25.2029 45.144 32.1547Z" stroke="#E0D5C8" stroke-width="0.704025"/>
<path d="M31.7673 46.5866C39.3006 46.5866 46.1034 48.2905 51.0105 51.027C55.9292 53.7702 58.8718 57.5043 58.8718 61.5475C58.8718 65.5908 55.9292 69.3249 51.0105 72.0681C46.1034 74.8046 39.3006 76.5085 31.7673 76.5085C24.2341 76.5085 17.4312 74.8045 12.5242 72.0681C7.60542 69.3249 4.66187 65.5908 4.66187 61.5475C4.66187 57.5043 7.60542 53.7702 12.5242 51.027C17.4312 48.2906 24.2341 46.5866 31.7673 46.5866Z" stroke="#E0D5C8" stroke-width="0.704025"/>
<path d="M31.7673 -12.1993C39.3006 -12.1993 46.1034 -10.4954 51.0105 -7.75885C55.9292 -5.0157 58.8718 -1.28158 58.8718 2.76166C58.8718 6.80489 55.9292 10.539 51.0105 13.2822C46.1034 16.0187 39.3006 17.7226 31.7673 17.7226C24.2341 17.7226 17.4312 16.0187 12.5242 13.2822C7.60542 10.539 4.66187 6.80489 4.66187 2.76166C4.66187 -1.28158 7.60542 -5.0157 12.5242 -7.75885C17.4312 -10.4953 24.2341 -12.1993 31.7673 -12.1993Z" stroke="#E0D5C8" stroke-width="0.704025"/>
<path d="M52.1843 32.1547C52.1843 46.0266 42.9808 57.1477 31.7673 57.1478C20.5538 57.1478 11.3503 46.0266 11.3503 32.1547C11.3504 18.2828 20.5539 7.1615 31.7673 7.1615C42.9808 7.16158 52.1843 18.2828 52.1843 32.1547Z" stroke="#E0D5C8" stroke-width="0.704025"/>
<path d="M31.7673 -16.0714C37.4414 -16.0714 42.5629 -14.5114 46.2556 -12.0079C49.9502 -9.50308 52.1842 -6.07934 52.1843 -2.34283C52.1843 1.39376 49.9502 4.81733 46.2556 7.3222C42.5629 9.82577 37.4414 11.3857 31.7673 11.3857C26.0933 11.3857 20.9718 9.82575 17.2791 7.3222C13.5846 4.81734 11.3503 1.3937 11.3503 -2.34283C11.3505 -6.07934 13.5845 -9.50308 17.2791 -12.0079C20.9718 -14.5114 26.0933 -16.0713 31.7673 -16.0714Z" fill="#F7F5F2" stroke="#E0D5C8" stroke-width="0.704025"/>
<path d="M31.7673 52.923C37.4414 52.923 42.5629 54.483 46.2556 56.9865C49.9502 59.4912 52.1842 62.915 52.1843 66.6515C52.1843 70.3881 49.9502 73.8117 46.2556 76.3165C42.5629 78.8201 37.4414 80.38 31.7673 80.38C26.0933 80.38 20.9718 78.8201 17.2791 76.3165C13.5846 73.8117 11.3503 70.388 11.3503 66.6515C11.3505 62.915 13.5845 59.4912 17.2791 56.9865C20.9718 54.4829 26.0933 52.923 31.7673 52.923Z" fill="#F7F5F2" stroke="#E0D5C8" stroke-width="0.704025"/>
</g>
<path d="M31.7671 7.16144C45.5702 7.16144 56.7602 18.3515 56.7603 32.1546C56.7603 45.9578 45.5702 57.1478 31.7671 57.1478C17.964 57.1477 6.77393 45.9577 6.77393 32.1546C6.77398 18.3515 17.964 7.16149 31.7671 7.16144Z" stroke="#E0D5C8" stroke-width="0.704025"/>
<path d="M23.958 30.1159V29.175H25.5738V24.3088H23.958V23.3678H28.178V24.3088H26.5622V29.175H28.178V30.1159H23.958ZM31.8524 30.268C31.3645 30.268 30.9368 30.1698 30.5693 29.9733C30.2082 29.7769 29.9199 29.5045 29.7044 29.156C29.489 28.8011 29.3623 28.3893 29.3243 27.9204L30.3507 27.8539C30.3951 28.177 30.4838 28.4495 30.6169 28.6713C30.7499 28.893 30.9242 29.0609 31.1396 29.175C31.355 29.2827 31.6053 29.3366 31.8904 29.3366C32.1692 29.3366 32.4037 29.3017 32.5937 29.232C32.7838 29.156 32.9296 29.0483 33.0309 28.9089C33.1323 28.7695 33.183 28.6016 33.183 28.4051C33.183 28.2024 33.1355 28.025 33.0405 27.8729C32.9454 27.7208 32.7743 27.5814 32.5272 27.4547C32.2801 27.328 31.9189 27.1981 31.4437 27.065C30.9812 26.9383 30.6042 26.7957 30.3127 26.6373C30.0212 26.4789 29.809 26.2825 29.6759 26.0481C29.5429 25.8136 29.4763 25.5222 29.4763 25.1737C29.4763 24.7872 29.565 24.4482 29.7425 24.1567C29.9262 23.8589 30.186 23.6276 30.5218 23.4629C30.864 23.2981 31.2726 23.2158 31.7479 23.2158C32.2167 23.2158 32.6159 23.3077 32.9454 23.4914C33.2812 23.6752 33.5442 23.9318 33.7343 24.2612C33.9307 24.5844 34.0511 24.9646 34.0954 25.4018L33.069 25.4588C33.0373 25.199 32.9644 24.9709 32.8504 24.7745C32.7427 24.5781 32.5937 24.426 32.4037 24.3183C32.2136 24.2042 31.9855 24.1472 31.7194 24.1472C31.3455 24.1472 31.0477 24.2391 30.8259 24.4228C30.6105 24.6002 30.5028 24.8347 30.5028 25.1261C30.5028 25.3226 30.5472 25.4841 30.6359 25.6109C30.7246 25.7376 30.8798 25.8516 31.1016 25.953C31.3233 26.0544 31.6338 26.1589 32.033 26.2667C32.5716 26.4124 32.9993 26.5803 33.3161 26.7704C33.6329 26.9605 33.861 27.1886 34.0004 27.4547C34.1398 27.7208 34.2095 28.0376 34.2095 28.4051C34.2095 28.7726 34.1113 29.0989 33.9148 29.3841C33.7184 29.6629 33.4428 29.8815 33.088 30.0399C32.7395 30.1919 32.3276 30.268 31.8524 30.268ZM37.4657 30.268C36.9272 30.268 36.471 30.1317 36.0971 29.8593C35.7296 29.5868 35.4477 29.1877 35.2512 28.6617C35.0548 28.1358 34.9566 27.4991 34.9566 26.7514C34.9566 25.991 35.0548 25.3479 35.2512 24.822C35.4477 24.2961 35.7296 23.8969 36.0971 23.6245C36.471 23.352 36.9272 23.2158 37.4657 23.2158C38.0043 23.2158 38.4605 23.352 38.8344 23.6245C39.2082 23.8969 39.4902 24.2961 39.6803 24.822C39.8767 25.3479 39.9749 25.991 39.9749 26.7514C39.9749 27.4991 39.8767 28.1358 39.6803 28.6617C39.4902 29.1877 39.2082 29.5868 38.8344 29.8593C38.4605 30.1317 38.0043 30.268 37.4657 30.268ZM37.4657 29.3366C37.7826 29.3366 38.0487 29.2415 38.2641 29.0514C38.4859 28.8613 38.6538 28.573 38.7678 28.1865C38.8819 27.8 38.9389 27.3216 38.9389 26.7514C38.9389 26.1811 38.8819 25.7027 38.7678 25.3162C38.6538 24.9234 38.4859 24.6319 38.2641 24.4418C38.0487 24.2454 37.7826 24.1472 37.4657 24.1472C37.1489 24.1472 36.8796 24.2454 36.6579 24.4418C36.4424 24.6319 36.2777 24.9234 36.1637 25.3162C36.0496 25.7027 35.9926 26.1811 35.9926 26.7514C35.9926 27.3216 36.0496 27.8 36.1637 28.1865C36.2777 28.573 36.4424 28.8613 36.6579 29.0514C36.8796 29.2415 37.1489 29.3366 37.4657 29.3366Z" fill="#363338"/>
<path d="M20.7322 39.4136C20.7322 39.0131 20.7905 38.6558 20.9071 38.3415C21.0237 38.0272 21.229 37.7332 21.523 37.4595C21.8221 37.1807 22.2352 36.9019 22.7624 36.6231C22.9905 36.5065 23.1755 36.395 23.3174 36.2886C23.4593 36.1821 23.5633 36.0681 23.6291 35.9464C23.695 35.8247 23.728 35.6777 23.728 35.5054C23.728 35.328 23.6925 35.1759 23.6215 35.0492C23.5506 34.9225 23.4441 34.8236 23.3022 34.7527C23.1603 34.6766 22.9829 34.6386 22.77 34.6386C22.4253 34.6386 22.1541 34.7299 21.9564 34.9123C21.7638 35.0948 21.6421 35.3559 21.5914 35.6955L20.7626 35.6423C20.8184 35.11 21.0186 34.6868 21.3633 34.3725C21.708 34.0531 22.1769 33.8935 22.77 33.8935C23.1552 33.8935 23.4796 33.9594 23.7432 34.0912C24.0119 34.223 24.2146 34.408 24.3515 34.6462C24.4883 34.8845 24.5568 35.1607 24.5568 35.475C24.5568 35.7538 24.5111 35.9946 24.4199 36.1973C24.3287 36.4001 24.1766 36.5876 23.9637 36.76C23.7508 36.9323 23.4593 37.1173 23.0893 37.315C22.7801 37.4823 22.5216 37.647 22.3138 37.8092C22.111 37.9664 21.9564 38.1185 21.8499 38.2655C21.7486 38.4074 21.6928 38.5392 21.6827 38.6608H24.5644V39.4136H20.7322ZM26.3254 39.4136C26.3254 38.8611 26.3989 38.3161 26.5459 37.7788C26.698 37.2365 26.9159 36.7118 27.1998 36.2049C27.4837 35.698 27.8207 35.219 28.2111 34.7679H25.3674V34.0151H29.0474V34.7146C28.718 35.0897 28.4341 35.4623 28.1959 35.8324C27.9576 36.1973 27.7625 36.5674 27.6104 36.9425C27.4583 37.3176 27.3468 37.7104 27.2758 38.121C27.2049 38.5265 27.1694 38.9574 27.1694 39.4136H26.3254ZM30.4283 38.6076L32.4964 34.7831L33.1047 34.8211L31.0366 38.6456L30.4283 38.6076ZM31.7665 39.5352C31.3711 39.5352 31.029 39.4212 30.74 39.1931C30.4511 38.965 30.2306 38.6406 30.0785 38.2198C29.9265 37.7991 29.8504 37.2998 29.8504 36.722C29.8504 36.139 29.9265 35.6372 30.0785 35.2165C30.2306 34.7957 30.4511 34.4713 30.74 34.2432C31.029 34.0101 31.3711 33.8935 31.7665 33.8935C32.1669 33.8935 32.5091 34.0101 32.793 34.2432C33.0819 34.4713 33.3024 34.7957 33.4545 35.2165C33.6065 35.6372 33.6826 36.139 33.6826 36.722C33.6826 37.2998 33.6065 37.7991 33.4545 38.2198C33.3024 38.6406 33.0819 38.965 32.793 39.1931C32.5091 39.4212 32.1669 39.5352 31.7665 39.5352ZM31.7665 38.7901C31.9946 38.7901 32.1872 38.709 32.3444 38.5468C32.5066 38.3795 32.6308 38.1413 32.7169 37.8321C32.8082 37.5229 32.8538 37.1528 32.8538 36.722C32.8538 36.281 32.8082 35.9059 32.7169 35.5966C32.6308 35.2874 32.5066 35.0517 32.3444 34.8895C32.1872 34.7222 31.9946 34.6386 31.7665 34.6386C31.5435 34.6386 31.3508 34.7222 31.1886 34.8895C31.0264 35.0517 30.8997 35.2874 30.8085 35.5966C30.7223 35.9059 30.6792 36.281 30.6792 36.722C30.6792 37.1528 30.7223 37.5229 30.8085 37.8321C30.8997 38.1413 31.0264 38.3795 31.1886 38.5468C31.3508 38.709 31.5435 38.7901 31.7665 38.7901ZM34.9874 38.6076L37.0555 34.7831L37.6638 34.8211L35.5957 38.6456L34.9874 38.6076ZM36.3256 39.5352C35.9302 39.5352 35.5881 39.4212 35.2991 39.1931C35.0102 38.965 34.7897 38.6406 34.6376 38.2198C34.4856 37.7991 34.4095 37.2998 34.4095 36.722C34.4095 36.139 34.4856 35.6372 34.6376 35.2165C34.7897 34.7957 35.0102 34.4713 35.2991 34.2432C35.5881 34.0101 35.9302 33.8935 36.3256 33.8935C36.726 33.8935 37.0682 34.0101 37.3521 34.2432C37.641 34.4713 37.8615 34.7957 38.0136 35.2165C38.1656 35.6372 38.2417 36.139 38.2417 36.722C38.2417 37.2998 38.1656 37.7991 38.0136 38.2198C37.8615 38.6406 37.641 38.965 37.3521 39.1931C37.0682 39.4212 36.726 39.5352 36.3256 39.5352ZM36.3256 38.7901C36.5537 38.7901 36.7463 38.709 36.9035 38.5468C37.0657 38.3795 37.1899 38.1413 37.276 37.8321C37.3673 37.5229 37.4129 37.1528 37.4129 36.722C37.4129 36.281 37.3673 35.9059 37.276 35.5966C37.1899 35.2874 37.0657 35.0517 36.9035 34.8895C36.7463 34.7222 36.5537 34.6386 36.3256 34.6386C36.1026 34.6386 35.9099 34.7222 35.7477 34.8895C35.5855 35.0517 35.4588 35.2874 35.3676 35.5966C35.2814 35.9059 35.2383 36.281 35.2383 36.722C35.2383 37.1528 35.2814 37.5229 35.3676 37.8321C35.4588 38.1413 35.5855 38.3795 35.7477 38.5468C35.9099 38.709 36.1026 38.7901 36.3256 38.7901ZM40.6794 39.4136V35.5662H39.2956V34.8895H39.9799C40.1776 34.8895 40.3373 34.8616 40.4589 34.8059C40.5806 34.7451 40.6693 34.6513 40.725 34.5246C40.7808 34.3978 40.8087 34.228 40.8087 34.0151H41.4778V39.4136H40.6794ZM39.0295 39.4136V38.6608H42.7399V39.4136H39.0295Z" fill="#363338"/>
<rect x="5.26733" y="58.8358" width="53" height="12" rx="6" fill="white"/>
<path d="M11.9073 67.8358V63.5958H12.5793V67.8358H11.9073ZM11.8913 62.9318V62.1478H12.5953V62.9318H11.8913ZM13.7786 67.8358V63.5958H14.3946L14.4186 64.6758L14.3386 64.6038C14.3919 64.3531 14.4853 64.1478 14.6186 63.9878C14.7519 63.8224 14.9119 63.6998 15.0986 63.6198C15.2906 63.5398 15.4959 63.4998 15.7146 63.4998C16.0399 63.4998 16.3066 63.5718 16.5146 63.7158C16.7279 63.8598 16.8853 64.0544 16.9866 64.2998C17.0933 64.5398 17.1466 64.8091 17.1466 65.1078V67.8358H16.4746V65.2998C16.4746 65.0384 16.4426 64.8198 16.3786 64.6438C16.3199 64.4624 16.2239 64.3264 16.0906 64.2358C15.9573 64.1398 15.7839 64.0918 15.5706 64.0918C15.2453 64.0918 14.9759 64.1958 14.7626 64.4038C14.5546 64.6064 14.4506 64.9051 14.4506 65.2998V67.8358H13.7786ZM17.979 65.8198V65.1878H20.627V65.8198H17.979ZM21.4586 69.0358V63.5958H22.0826L22.0986 64.5078L22.0026 64.4598C22.1093 64.1451 22.2853 63.9078 22.5306 63.7478C22.7813 63.5824 23.0693 63.4998 23.3946 63.4998C23.8159 63.4998 24.1599 63.6038 24.4266 63.8118C24.6986 64.0198 24.8986 64.2918 25.0266 64.6278C25.1599 64.9638 25.2266 65.3264 25.2266 65.7158C25.2266 66.1051 25.1599 66.4678 25.0266 66.8038C24.8986 67.1398 24.6986 67.4118 24.4266 67.6198C24.1599 67.8278 23.8159 67.9318 23.3946 67.9318C23.1759 67.9318 22.9706 67.8944 22.7786 67.8198C22.5919 67.7451 22.4319 67.6411 22.2986 67.5078C22.1706 67.3744 22.0826 67.2171 22.0346 67.0358L22.1306 66.9238V69.0358H21.4586ZM23.3306 67.2918C23.6986 67.2918 23.9893 67.1531 24.2026 66.8758C24.4159 66.5984 24.5226 66.2118 24.5226 65.7158C24.5226 65.2198 24.4159 64.8331 24.2026 64.5558C23.9893 64.2784 23.6986 64.1398 23.3306 64.1398C23.0853 64.1398 22.8719 64.1984 22.6906 64.3158C22.5146 64.4331 22.3759 64.6091 22.2746 64.8438C22.1786 65.0784 22.1306 65.3691 22.1306 65.7158C22.1306 66.0624 22.1786 66.3531 22.2746 66.5878C22.3706 66.8224 22.5093 66.9984 22.6906 67.1158C22.8719 67.2331 23.0853 67.2918 23.3306 67.2918ZM25.9783 67.8358V63.5958H26.5703L26.6023 64.6678L26.5383 64.6438C26.5916 64.2811 26.7063 64.0171 26.8823 63.8518C27.0636 63.6811 27.3036 63.5958 27.6023 63.5958H28.0183V64.2358H27.6103C27.3969 64.2358 27.2183 64.2758 27.0743 64.3558C26.9356 64.4304 26.8289 64.5451 26.7543 64.6998C26.6849 64.8491 26.6503 65.0411 26.6503 65.2758V67.8358H25.9783ZM30.1852 67.9318C29.7959 67.9318 29.4545 67.8411 29.1612 67.6598C28.8679 67.4784 28.6412 67.2224 28.4812 66.8918C28.3212 66.5558 28.2412 66.1638 28.2412 65.7158C28.2412 65.2624 28.3212 64.8704 28.4812 64.5398C28.6412 64.2091 28.8679 63.9531 29.1612 63.7718C29.4545 63.5904 29.7959 63.4998 30.1852 63.4998C30.5745 63.4998 30.9132 63.5904 31.2012 63.7718C31.4945 63.9531 31.7212 64.2091 31.8812 64.5398C32.0412 64.8704 32.1212 65.2624 32.1212 65.7158C32.1212 66.1638 32.0412 66.5558 31.8812 66.8918C31.7212 67.2224 31.4945 67.4784 31.2012 67.6598C30.9132 67.8411 30.5745 67.9318 30.1852 67.9318ZM30.1852 67.2918C30.5745 67.2918 30.8759 67.1531 31.0892 66.8758C31.3079 66.5931 31.4172 66.2064 31.4172 65.7158C31.4172 65.2251 31.3079 64.8411 31.0892 64.5638C30.8759 64.2811 30.5745 64.1398 30.1852 64.1398C29.7959 64.1398 29.4919 64.2811 29.2732 64.5638C29.0545 64.8411 28.9452 65.2251 28.9452 65.7158C28.9452 66.2064 29.0545 66.5931 29.2732 66.8758C29.4919 67.1531 29.7959 67.2918 30.1852 67.2918ZM34.485 69.1318C34.181 69.1318 33.9064 69.0811 33.661 68.9798C33.4157 68.8784 33.2104 68.7344 33.045 68.5478C32.8797 68.3611 32.7677 68.1451 32.709 67.8998L33.413 67.8518C33.477 68.0491 33.589 68.2038 33.749 68.3158C33.9144 68.4331 34.1597 68.4918 34.485 68.4918C34.869 68.4918 35.1624 68.4144 35.365 68.2598C35.573 68.1051 35.677 67.8731 35.677 67.5638V66.8758C35.5757 67.0998 35.413 67.2784 35.189 67.4118C34.965 67.5451 34.7144 67.6118 34.437 67.6118C34.0797 67.6118 33.7597 67.5238 33.477 67.3478C33.1997 67.1718 32.981 66.9291 32.821 66.6198C32.6664 66.3104 32.589 65.9558 32.589 65.5558C32.589 65.1504 32.6664 64.7958 32.821 64.4918C32.9757 64.1824 33.189 63.9398 33.461 63.7638C33.7384 63.5878 34.053 63.4998 34.405 63.4998C34.7037 63.4998 34.9704 63.5691 35.205 63.7078C35.445 63.8464 35.613 64.0331 35.709 64.2678V63.5958H36.349V67.5478C36.349 67.8784 36.2744 68.1611 36.125 68.3958C35.9757 68.6358 35.7624 68.8171 35.485 68.9398C35.2077 69.0678 34.8744 69.1318 34.485 69.1318ZM34.469 66.9718C34.8317 66.9718 35.1224 66.8464 35.341 66.5958C35.5597 66.3398 35.6717 65.9931 35.677 65.5558C35.6824 65.2624 35.6344 65.0118 35.533 64.8038C35.437 64.5904 35.2957 64.4278 35.109 64.3158C34.9277 64.1984 34.7144 64.1398 34.469 64.1398C34.0957 64.1398 33.805 64.2678 33.597 64.5238C33.3944 64.7744 33.293 65.1184 33.293 65.5558C33.293 65.9931 33.397 66.3398 33.605 66.5958C33.8184 66.8464 34.1064 66.9718 34.469 66.9718ZM37.467 67.8358V63.5958H38.059L38.091 64.6678L38.027 64.6438C38.0804 64.2811 38.195 64.0171 38.371 63.8518C38.5524 63.6811 38.7924 63.5958 39.091 63.5958H39.507V64.2358H39.099C38.8857 64.2358 38.707 64.2758 38.563 64.3558C38.4244 64.4304 38.3177 64.5451 38.243 64.6998C38.1737 64.8491 38.139 65.0411 38.139 65.2758V67.8358H37.467ZM41.674 67.9318C41.274 67.9318 40.9273 67.8411 40.634 67.6598C40.346 67.4784 40.122 67.2224 39.962 66.8918C39.8073 66.5558 39.73 66.1638 39.73 65.7158C39.73 65.2678 39.8073 64.8784 39.962 64.5478C40.122 64.2171 40.3433 63.9611 40.626 63.7798C40.914 63.5931 41.2526 63.4998 41.642 63.4998C42.01 63.4998 42.3353 63.5878 42.618 63.7638C42.9006 63.9344 43.1193 64.1851 43.274 64.5158C43.434 64.8464 43.514 65.2491 43.514 65.7238V65.9238H40.434C40.4606 66.3771 40.5806 66.7184 40.794 66.9478C41.0126 67.1771 41.306 67.2918 41.674 67.2918C41.9513 67.2918 42.178 67.2278 42.354 67.0998C42.5353 66.9664 42.6606 66.7931 42.73 66.5798L43.45 66.6358C43.338 67.0144 43.1246 67.3264 42.81 67.5718C42.5006 67.8118 42.122 67.9318 41.674 67.9318ZM40.434 65.3318H42.778C42.746 64.9211 42.626 64.6198 42.418 64.4278C42.2153 64.2358 41.9566 64.1398 41.642 64.1398C41.3166 64.1398 41.0473 64.2411 40.834 64.4438C40.626 64.6411 40.4926 64.9371 40.434 65.3318ZM45.8082 67.9318C45.4295 67.9318 45.1069 67.8704 44.8402 67.7478C44.5789 67.6251 44.3735 67.4571 44.2242 67.2438C44.0802 67.0251 43.9975 66.7771 43.9762 66.4998L44.6802 66.4518C44.7229 66.7078 44.8322 66.9131 45.0082 67.0678C45.1842 67.2171 45.4509 67.2918 45.8082 67.2918C46.0962 67.2918 46.3255 67.2464 46.4962 67.1558C46.6722 67.0598 46.7602 66.9078 46.7602 66.6998C46.7602 66.5878 46.7335 66.4944 46.6802 66.4198C46.6269 66.3451 46.5229 66.2811 46.3682 66.2278C46.2135 66.1691 45.9842 66.1131 45.6802 66.0598C45.2749 65.9851 44.9549 65.8944 44.7202 65.7878C44.4909 65.6758 44.3255 65.5398 44.2242 65.3798C44.1282 65.2144 44.0802 65.0198 44.0802 64.7958C44.0802 64.4171 44.2189 64.1078 44.4962 63.8678C44.7735 63.6224 45.1682 63.4998 45.6802 63.4998C46.0269 63.4998 46.3175 63.5638 46.5522 63.6918C46.7922 63.8144 46.9789 63.9798 47.1122 64.1878C47.2509 64.3904 47.3415 64.6144 47.3842 64.8598L46.6802 64.9078C46.6482 64.7584 46.5895 64.6278 46.5042 64.5158C46.4189 64.3984 46.3069 64.3078 46.1682 64.2438C46.0295 64.1744 45.8642 64.1398 45.6722 64.1398C45.3682 64.1398 45.1442 64.1984 45.0002 64.3158C44.8562 64.4331 44.7842 64.5824 44.7842 64.7638C44.7842 64.9024 44.8162 65.0171 44.8802 65.1078C44.9495 65.1931 45.0589 65.2651 45.2082 65.3238C45.3575 65.3771 45.5575 65.4251 45.8082 65.4678C46.2402 65.5424 46.5762 65.6331 46.8162 65.7398C47.0562 65.8464 47.2242 65.9771 47.3202 66.1318C47.4162 66.2864 47.4642 66.4758 47.4642 66.6998C47.4642 66.9611 47.3895 67.1851 47.2402 67.3718C47.0962 67.5531 46.8989 67.6918 46.6482 67.7878C46.4029 67.8838 46.1229 67.9318 45.8082 67.9318ZM49.7654 67.9318C49.3867 67.9318 49.0641 67.8704 48.7974 67.7478C48.5361 67.6251 48.3307 67.4571 48.1814 67.2438C48.0374 67.0251 47.9547 66.7771 47.9334 66.4998L48.6374 66.4518C48.6801 66.7078 48.7894 66.9131 48.9654 67.0678C49.1414 67.2171 49.4081 67.2918 49.7654 67.2918C50.0534 67.2918 50.2827 67.2464 50.4534 67.1558C50.6294 67.0598 50.7174 66.9078 50.7174 66.6998C50.7174 66.5878 50.6907 66.4944 50.6374 66.4198C50.5841 66.3451 50.4801 66.2811 50.3254 66.2278C50.1707 66.1691 49.9414 66.1131 49.6374 66.0598C49.2321 65.9851 48.9121 65.8944 48.6774 65.7878C48.4481 65.6758 48.2827 65.5398 48.1814 65.3798C48.0854 65.2144 48.0374 65.0198 48.0374 64.7958C48.0374 64.4171 48.1761 64.1078 48.4534 63.8678C48.7307 63.6224 49.1254 63.4998 49.6374 63.4998C49.9841 63.4998 50.2747 63.5638 50.5094 63.6918C50.7494 63.8144 50.9361 63.9798 51.0694 64.1878C51.2081 64.3904 51.2987 64.6144 51.3414 64.8598L50.6374 64.9078C50.6054 64.7584 50.5467 64.6278 50.4614 64.5158C50.3761 64.3984 50.2641 64.3078 50.1254 64.2438C49.9867 64.1744 49.8214 64.1398 49.6294 64.1398C49.3254 64.1398 49.1014 64.1984 48.9574 64.3158C48.8134 64.4331 48.7414 64.5824 48.7414 64.7638C48.7414 64.9024 48.7734 65.0171 48.8374 65.1078C48.9067 65.1931 49.0161 65.2651 49.1654 65.3238C49.3147 65.3771 49.5147 65.4251 49.7654 65.4678C50.1974 65.5424 50.5334 65.6331 50.7734 65.7398C51.0134 65.8464 51.1814 65.9771 51.2774 66.1318C51.3734 66.2864 51.4214 66.4758 51.4214 66.6998C51.4214 66.9611 51.3467 67.1851 51.1974 67.3718C51.0534 67.5531 50.8561 67.6918 50.6054 67.7878C50.3601 67.8838 50.0801 67.9318 49.7654 67.9318Z" fill="#CCBAA5"/>
<defs>
<clipPath id="clip0_791_9968">
<path d="M6.42236 32.1547C6.42236 18.1571 17.7696 6.80988 31.7672 6.80988C45.7648 6.80988 57.112 18.1571 57.112 32.1547C57.112 46.1523 45.7648 57.4995 31.7672 57.4995C17.7696 57.4995 6.42236 46.1523 6.42236 32.1547Z" fill="white"/>
</clipPath>
</defs>
</svg>
