<svg width="30" height="30" viewBox="0 0 30 30" fill="none" xmlns="http://www.w3.org/2000/svg">
<rect x="0.342163" width="29.4737" height="29.4737" rx="8" fill="#66616C"/>
<g clip-path="url(#clip0_786_6765)">
<path d="M11.6882 6.60712C10.8171 6.64822 10.2222 6.78724 9.70217 6.99159C9.16395 7.20135 8.70777 7.48282 8.25387 7.93835C7.79998 8.39388 7.52047 8.8504 7.31219 9.38944C7.11062 9.91063 6.97406 10.506 6.93558 11.3776C6.8971 12.2492 6.88858 12.5294 6.89284 14.7527C6.8971 16.976 6.90692 17.2547 6.94917 18.1281C6.99076 18.999 7.12929 19.5937 7.33364 20.1139C7.54372 20.6522 7.82486 21.1082 8.28056 21.5622C8.73626 22.0163 9.19244 22.2951 9.73279 22.5038C10.2535 22.705 10.849 22.8422 11.7205 22.8804C12.5919 22.9185 12.8724 22.9274 15.095 22.9231C17.3177 22.9188 17.5975 22.909 18.4708 22.8676C19.344 22.8262 19.9356 22.6867 20.456 22.4833C20.9942 22.2727 21.4505 21.9921 21.9043 21.5362C22.358 21.0803 22.6374 20.6235 22.8455 20.0841C23.0472 19.5634 23.1843 18.9679 23.2221 18.0971C23.2602 17.2232 23.2692 16.9442 23.265 14.7212C23.2607 12.4983 23.2507 12.2196 23.2093 11.3465C23.1679 10.4734 23.0292 9.8805 22.825 9.35997C22.6146 8.82174 22.3338 8.36605 21.8782 7.91166C21.4227 7.45728 20.9655 7.1781 20.4263 6.97047C19.9053 6.7689 19.3101 6.63152 18.4387 6.59386C17.5672 6.5562 17.2867 6.54654 15.0633 6.5508C12.8398 6.55505 12.5615 6.56455 11.6882 6.60712ZM11.7838 21.4075C10.9856 21.3728 10.5522 21.2402 10.2633 21.1291C9.88082 20.9818 9.60835 20.8036 9.32049 20.5185C9.03263 20.2335 8.85579 19.96 8.70646 19.5783C8.59429 19.2895 8.4592 18.8566 8.42187 18.0583C8.38126 17.1955 8.37275 16.9365 8.368 14.7507C8.36325 12.5649 8.3716 12.3062 8.40943 11.4431C8.44348 10.6455 8.57694 10.2116 8.68779 9.92291C8.83516 9.53992 9.01265 9.26794 9.29839 8.98025C9.58412 8.69255 9.85675 8.51538 10.2388 8.36605C10.5273 8.25339 10.9602 8.11945 11.7581 8.08146C12.6215 8.04053 12.8803 8.03234 15.0657 8.02759C17.2512 8.02284 17.5106 8.03103 18.3743 8.06902C19.1719 8.10373 19.606 8.23587 19.8943 8.34738C20.277 8.49475 20.5493 8.67176 20.837 8.95798C21.1247 9.2442 21.302 9.51585 21.4514 9.89868C21.5642 10.1864 21.6981 10.6191 21.7358 11.4176C21.7769 12.281 21.7862 12.5398 21.7902 14.7252C21.7941 16.9105 21.7864 17.17 21.7486 18.0328C21.7137 18.831 21.5814 19.2646 21.4702 19.5538C21.3228 19.9361 21.1452 20.2087 20.8593 20.4963C20.5734 20.7838 20.3011 20.961 19.9189 21.1103C19.6307 21.2228 19.1973 21.3571 18.4 21.3951C17.5366 21.4357 17.2779 21.4442 15.0916 21.4489C12.9053 21.4537 12.6474 21.4448 11.784 21.4075M18.4582 10.3613C18.4585 10.5556 18.5164 10.7454 18.6247 10.9068C18.7329 11.0682 18.8866 11.1939 19.0662 11.2679C19.2459 11.342 19.4435 11.3611 19.634 11.3228C19.8245 11.2846 19.9994 11.1907 20.1366 11.053C20.2737 10.9154 20.367 10.7401 20.4045 10.5495C20.4421 10.3588 20.4223 10.1613 20.3476 9.98191C20.2728 9.80252 20.1466 9.64931 19.9848 9.54166C19.823 9.43402 19.633 9.37677 19.4386 9.37716C19.1781 9.37768 18.9285 9.48164 18.7446 9.66619C18.5608 9.85073 18.4577 10.1007 18.4582 10.3613ZM10.8752 14.7451C10.8798 17.067 12.7655 18.945 15.0869 18.9406C17.4082 18.9361 19.2875 17.0506 19.2831 14.7288C19.2787 12.4069 17.3925 10.5284 15.0708 10.533C12.7491 10.5376 10.8708 12.4236 10.8752 14.7451ZM12.3499 14.7422C12.3488 14.2024 12.5078 13.6745 12.8068 13.2251C13.1058 12.7757 13.5314 12.425 14.0296 12.2175C14.5279 12.01 15.0765 11.9548 15.6061 12.0591C16.1357 12.1633 16.6225 12.4223 17.0049 12.8032C17.3874 13.1841 17.6482 13.6699 17.7546 14.1991C17.8609 14.7283 17.808 15.2771 17.6024 15.7762C17.3968 16.2753 17.0479 16.7022 16.5997 17.0029C16.1515 17.3037 15.6242 17.4648 15.0844 17.4659C14.726 17.4666 14.371 17.3968 14.0396 17.2603C13.7082 17.1238 13.4069 16.9234 13.153 16.6705C12.899 16.4175 12.6974 16.1171 12.5596 15.7862C12.4218 15.4554 12.3506 15.1006 12.3499 14.7422Z" fill="#E8E7EA"/>
</g>
<defs>
<clipPath id="clip0_786_6765">
<rect width="16.3743" height="16.3743" fill="white" transform="translate(6.89185 6.54968)"/>
</clipPath>
</defs>
</svg>
