<svg width="30" height="30" viewBox="0 0 30 30" fill="none" xmlns="http://www.w3.org/2000/svg">
<rect x="0.0263672" width="29.4737" height="29.4737" rx="8" fill="#66616C"/>
<path d="M20.5282 20.4436H18.102V16.682C18.102 15.785 18.0859 14.6303 16.8402 14.6303C15.5766 14.6303 15.3832 15.6076 15.3832 16.6167V20.4433H12.9571V12.708H15.2862V13.7651H15.3188C15.5519 13.3705 15.8887 13.0459 16.2934 12.8259C16.698 12.6058 17.1554 12.4986 17.6168 12.5155C20.0758 12.5155 20.5292 14.1169 20.5292 16.2001L20.5282 20.4436ZM10.2196 11.6506C9.9411 11.6506 9.66887 11.5689 9.43731 11.4158C9.20574 11.2627 9.02526 11.045 8.91865 10.7903C8.81204 10.5357 8.7841 10.2554 8.83838 9.985C8.89266 9.7146 9.02671 9.46621 9.22358 9.27123C9.42044 9.07626 9.67129 8.94346 9.94439 8.88962C10.2175 8.83579 10.5006 8.86335 10.7579 8.9688C11.0151 9.07426 11.2351 9.25287 11.3898 9.48207C11.5446 9.71127 11.6272 9.98075 11.6272 10.2564C11.6273 10.4395 11.5909 10.6207 11.5202 10.7899C11.4494 10.959 11.3458 11.1127 11.215 11.2421C11.0843 11.3716 10.9291 11.4743 10.7583 11.5444C10.5875 11.6145 10.4044 11.6506 10.2196 11.6506ZM11.4326 20.4436H9.00395V12.708H11.4326V20.4436ZM21.7377 6.63221H7.78482C7.46812 6.62867 7.16295 6.74975 6.93639 6.96885C6.70983 7.18795 6.5804 7.48714 6.57654 7.80067V21.6718C6.58027 21.9855 6.70962 22.2849 6.93617 22.5042C7.16273 22.7236 7.46797 22.8449 7.78482 22.8415H21.7377C22.0552 22.8455 22.3613 22.7245 22.5887 22.5052C22.8162 22.2859 22.9464 21.9861 22.9508 21.6718V7.79967C22.9463 7.48551 22.816 7.18599 22.5885 6.96689C22.3611 6.7478 22.0551 6.62706 21.7377 6.63121" fill="#E8E7EA"/>
</svg>
