<svg width="110" height="24" viewBox="0 0 110 24" fill="none" xmlns="http://www.w3.org/2000/svg">
<path d="M37.7351 18C35.8288 18 34.1484 17.1525 34.1484 15.5025V15.33H36.1226V15.465C36.1226 16.1175 36.7556 16.44 37.7954 16.44C38.6469 16.44 39.423 16.1775 39.423 15.5925C39.423 14.9625 38.7901 14.775 37.4111 14.55C35.889 14.295 34.2615 13.725 34.2615 12.15C34.2615 10.5825 35.8288 9.73502 37.7502 9.73502C39.5812 9.73502 41.2239 10.665 41.2239 12.255V12.375H39.2648V12.2775C39.2648 11.595 38.5113 11.2875 37.7502 11.2875C37.057 11.2875 36.2055 11.4825 36.2055 12.0975C36.2055 12.705 36.9967 12.915 38.1722 13.1175C39.6265 13.365 41.3595 13.845 41.3595 15.5175C41.3595 17.2575 39.5812 18 37.7351 18Z" fill="white"/>
<path d="M49.3471 17.835V9.87002H51.3062V17.835H49.3471Z" fill="white"/>
<path d="M63.4319 18C60.8925 18 59.1218 16.35 59.1218 13.83C59.1218 11.3175 60.8925 9.73502 63.4319 9.73502C65.9561 9.73502 67.3727 11.4075 67.3727 12.8625V12.9225H65.4061C65.4061 12.87 65.391 12.81 65.3834 12.75C65.2553 11.9925 64.5772 11.37 63.4093 11.37C62.1434 11.37 61.1412 12.2025 61.1412 13.83C61.1412 15.45 62.1434 16.365 63.4093 16.365C64.7505 16.365 65.3307 15.675 65.3985 14.8425H67.3727C67.3727 16.3275 66.0013 18 63.4319 18Z" fill="white"/>
<path d="M68.7865 17.835V6.11253H70.7682V10.905C71.371 10.1775 72.3129 9.73502 73.4432 9.73502C75.3872 9.73502 76.4346 10.9425 76.4346 12.9825V17.835H74.4529V13.5075C74.4529 12.1875 73.9932 11.46 72.7424 11.46C71.4916 11.46 70.7682 12.2475 70.7682 13.3875V17.835H68.7865Z" fill="white"/>
<path d="M79.169 17.835V11.445H77.4736V9.87002H79.169V9.15752C79.169 6.81003 80.8644 6.00003 82.4619 6.00003C83.0647 6.00003 82.9706 6 83.4716 6V7.62003C83.4716 7.62003 82.9022 7.62003 82.6804 7.62003C81.4446 7.62003 81.1508 8.37002 81.1508 9.31502V9.87002H83.3661V11.445H81.1508V17.835H79.169ZM86.9547 6.11253V17.835H85.0031V6.11253H86.9547Z" fill="white"/>
<path d="M92.6918 17.9925C90.16 17.9925 88.4044 16.275 88.4044 13.8525C88.4044 11.43 90.16 9.73502 92.6918 9.73502C95.2236 9.73502 96.9793 11.43 96.9793 13.8525C96.9793 16.275 95.2236 17.9925 92.6918 17.9925ZM92.6918 16.38C94.0557 16.38 94.975 15.375 94.975 13.8525C94.975 12.3225 94.0557 11.355 92.6918 11.355C91.328 11.355 90.4087 12.3225 90.4087 13.8525C90.4087 15.375 91.328 16.38 92.6918 16.38Z" fill="white"/>
<path d="M99.6215 17.835L97.9713 9.87002H100.028L101.068 16.4025L102.673 9.87002H104.791L106.411 16.4025L107.443 9.87002H109.5L107.857 17.835H105.137L103.736 11.85L102.357 17.835H99.6215Z" fill="white"/>
<path d="M46.0988 17.834C44.499 17.834 43.8403 17.0175 43.8403 15.6365V11.2941H41.949V9.71905H42.7176C43.7575 9.71905 43.8403 9.65155 43.8403 8.36156V7.09406H45.8296V9.71905H48.2107V11.2941H45.8296V14.7196C45.8296 15.2799 45.8296 15.9976 46.6525 15.9976C46.9689 15.9976 47.2012 15.9976 47.3731 15.9976V17.8332C47.3731 17.8332 46.566 17.834 46.0988 17.834Z" fill="white"/>
<path d="M56.6175 17.834C55.0177 17.834 54.3591 17.0175 54.3591 15.6365V11.2941H52.4678V9.71905H53.2363C54.2762 9.71905 54.3591 9.65155 54.3591 8.36156V7.09406H56.3483V9.71905H58.7294V11.2941H56.3483V14.7196C56.3483 15.2799 56.3483 15.9976 57.1712 15.9976C57.4877 15.9976 57.72 15.9976 57.8918 15.9976V17.8332C57.8918 17.8332 57.0847 17.834 56.6175 17.834Z" fill="white"/>
<path d="M51.4652 7.61162C51.4652 8.24521 50.9492 8.75883 50.3126 8.75883C49.6761 8.75883 49.1601 8.24521 49.1601 7.61162C49.1601 6.97803 49.6761 6.46441 50.3126 6.46441C50.9492 6.46441 51.4652 6.97803 51.4652 7.61162Z" fill="white"/>
<path d="M0.5 11.52C0.5 7.48762 0.5 5.47143 1.28588 3.93127C1.97717 2.5765 3.08021 1.47504 4.43693 0.784753C5.97931 0 7.99841 0 12.0366 0H12.998C17.0362 0 19.0553 0 20.5976 0.784753C21.9544 1.47504 23.0574 2.5765 23.7487 3.93127C24.5346 5.47143 24.5346 7.48762 24.5346 11.52V12.48C24.5346 16.5124 24.5346 18.5286 23.7487 20.0687C23.0574 21.4235 21.9544 22.525 20.5976 23.2152C19.0553 24 17.0362 24 12.998 24H12.0366C7.99841 24 5.97931 24 4.43693 23.2152C3.08021 22.525 1.97717 21.4235 1.28588 20.0687C0.5 18.5286 0.5 16.5124 0.5 12.48V11.52Z" fill="black"/>
<path d="M5.90784 10.4C5.90784 11.0668 5.90784 11.4002 5.96492 11.6937C6.16307 12.7126 6.8588 13.5754 7.83162 14.0087C8.11183 14.1335 8.44585 14.2144 9.11388 14.3761L12.5173 15.2V12L5.90784 10.4L15.8221 7.99999V4.79999L9.11389 6.42387C8.44584 6.5856 8.11181 6.66646 7.83158 6.79126C6.85877 7.22454 6.16305 8.08736 5.9649 9.10629C5.90782 9.3998 5.90784 9.7332 5.90784 10.4Z" fill="white"/>
<path d="M9.21258 19.2L15.9208 17.5761C16.5888 17.4144 16.9229 17.3335 17.2031 17.2087C18.1759 16.7754 18.8716 15.9126 19.0698 14.8937C19.1268 14.6002 19.1268 14.2668 19.1268 13.6C19.1268 12.9332 19.1268 12.5998 19.0697 12.3063C18.8716 11.2874 18.1759 10.4245 17.203 9.99126C16.9228 9.86646 16.5888 9.7856 15.9208 9.62388L12.5173 8.80001L12.5173 12L19.1268 13.6L9.21258 16L9.21258 19.2Z" fill="white"/>
</svg>
