<svg width="100" height="40" viewBox="0 0 100 40" fill="none" xmlns="http://www.w3.org/2000/svg">
<path d="M100 36.5615C98.4264 41.6483 88.4575 41.003 88.4453 35.2112H90.779C90.5899 38.3429 96.7367 38.925 97.6567 36.6067C98.7612 33.8247 94.6455 33.9984 93.0894 33.7164C91.3686 33.405 89.106 32.8015 88.8079 30.7382C88.1094 25.903 94.5265 24.8065 97.7445 26.7525C98.997 27.5095 99.6188 28.8226 99.779 30.2621H97.4453C97.4943 27.2534 91.4053 27.065 91.0071 29.4239C90.8057 30.6163 91.3997 31.1488 92.4442 31.4444C95.0638 32.1855 98.9893 31.4985 100 34.875V36.5627V36.5615Z" fill="#805D4E"/>
<path d="M28.4448 33.4118H17.7785C17.5493 38.353 24.5538 39.7711 26.001 35.0995H28.2234C27.586 38.89 24.0621 40.5202 20.5315 39.7936C12.5838 38.1567 14.12 23.9299 23.7829 26.0395C26.0176 26.528 28.4459 28.9264 28.4459 31.3304V33.4118H28.4448ZM26.1111 31.4997C25.6962 26.5799 18.4325 26.7254 17.8886 31.4997H26.1111Z" fill="#805D4E"/>
<path d="M87.3335 33.4118H76.6672C76.438 38.353 83.4425 39.7711 84.8896 35.0995H87.1121C86.4747 38.89 82.9508 40.5202 79.4202 39.7936C71.4725 38.1567 73.0086 23.9299 82.6716 26.0395C84.9063 26.528 87.3346 28.9264 87.3346 31.3304V33.4118H87.3335ZM84.9998 31.4997C84.5848 26.5799 77.3212 26.7254 76.7773 31.4997H84.9998Z" fill="#805D4E"/>
<path d="M2.55506 20.8118L8.16796 36.7872L13.8888 20.8118H16.3337L9.59844 39.8309L6.72191 39.7124L0 20.8118H2.55506Z" fill="#805D4E"/>
<path d="M42.6667 39.8241H40.4442V31.556C40.4442 31.3033 40.1639 30.3286 40.0538 30.0387C39.0393 27.3605 35.283 27.2793 33.61 29.3607C33.1016 29.9936 32.5555 31.4297 32.5555 32.2306V39.8241H30.333V25.9865H32.333L32.5566 27.7858C35.2218 24.8324 40.8803 25.1313 42.2529 29.2727C42.3742 29.6393 42.6656 30.7742 42.6656 31.1048V39.8229L42.6667 39.8241Z" fill="#805D4E"/>
<path d="M54.8885 25.9863V34.48C54.8885 35.8134 55.9708 37.3308 57.2444 37.72C59.9841 38.5582 62.4447 36.3798 62.4447 33.5798V25.9863H64.6671V39.8239H62.6671L62.4435 38.0246C59.9486 40.9453 54.4714 40.6531 53.1065 36.7351C52.9953 36.4147 52.666 35.2009 52.666 34.9312V25.9875H54.8885V25.9863Z" fill="#805D4E"/>
<path d="M38.4445 11.5305C38.5535 12.2785 39.0085 12.31 39.667 12.2615L39.5624 14.238C38.6103 14.388 37.5113 14.2628 36.8884 13.4438C36.6336 13.3389 36.7771 12.6259 36.5002 12.7117C36.4512 12.7263 36.0396 13.3242 35.8294 13.4968C33.499 15.4124 29.8483 14.2809 28.4968 11.702C25.677 6.32194 32.0363 0.381223 36.4423 5.06295V3.6009H38.4434V11.5316L38.4445 11.5305ZM32.6403 5.54128C28.9818 6.08503 29.2766 12.5165 33.3834 12.3777C37.5947 12.2356 37.499 4.81928 32.6403 5.54128Z" fill="#805D4E"/>
<path d="M5.42166 3.40806C13.2226 2.60483 13.623 15.2534 5.16805 14.3983C-0.809706 13.7936 -1.11338 4.08042 5.42166 3.40806ZM5.30487 5.53909C1.71421 6.15505 2.02011 12.556 6.16249 12.3755C10.5062 12.186 10.138 4.70879 5.30487 5.53909Z" fill="#805D4E"/>
<path d="M14.9999 0V7.64983L15.7307 7.54491L18.4448 3.59985H20.8887L17.4626 8.47336L21.7819 13.8895L21.8887 14.2866H19.3892L15.7552 9.69964L14.9999 9.67482V14.2866H12.8887V0H14.9999Z" fill="#805D4E"/>
<path d="M47.8892 25.9865H51.4443V28.0115H47.8892V36.8424C47.8892 37.235 48.6801 37.7991 49.0561 37.7991H51.6668V39.8241H48.2774C47.8837 39.8241 46.8025 39.3311 46.4999 39.0355C46.224 38.767 45.6656 37.6412 45.6656 37.2926V28.0115H43.2207V25.9865H45.6656V22.0493H47.7213L47.8881 22.2185V25.9876L47.8892 25.9865Z" fill="#805D4E"/>
<path d="M69 25.9865L69.2236 27.8987C69.7175 27.3865 70.0712 26.8946 70.7197 26.546C71.0345 26.3768 72.0857 25.9865 72.3893 25.9865H74V28.236H71.9444C71.4116 28.236 70.4538 29.002 70.1301 29.4363C69.6618 30.0647 69.2225 31.3417 69.2225 32.1167V39.823H67V25.9854H69V25.9865Z" fill="#805D4E"/>
<path d="M24.6667 0V3.59985H27.333V5.62484H24.6667V11.7562C24.6667 11.869 25.0549 12.2627 25.1672 12.2627H27.3341V14.2877H24.5009C24.0716 14.2877 23.2718 13.8083 23.0015 13.4428C22.7668 13.1258 22.4453 12.2379 22.4453 11.869V0.169219L22.6122 0H24.6678H24.6667Z" fill="#805D4E"/>
</svg>
