<svg width="30" height="30" viewBox="0 0 30 30" fill="none" xmlns="http://www.w3.org/2000/svg">
<rect x="0.5" width="29.4737" height="29.4737" rx="8" fill="#66616C"/>
<g clip-path="url(#clip0_786_6762)">
<path d="M13.5622 17.1631V12.3106L17.8418 14.737L13.5622 17.1631ZM23.0818 10.7837C22.8935 10.077 22.3386 9.52056 21.6341 9.3317C20.3572 8.98846 15.2368 8.98846 15.2368 8.98846C15.2368 8.98846 10.1164 8.98846 8.83949 9.3317C8.135 9.52056 7.58013 10.077 7.39184 10.7837C7.04968 12.0645 7.04968 14.7369 7.04968 14.7369C7.04968 14.7369 7.04968 17.4092 7.39184 18.69C7.58013 19.3967 8.135 19.9532 8.83949 20.1421C10.1164 20.4853 15.2368 20.4853 15.2368 20.4853C15.2368 20.4853 20.3572 20.4853 21.6341 20.1421C22.3386 19.9532 22.8935 19.3967 23.0818 18.69C23.424 17.4092 23.424 14.7369 23.424 14.7369C23.424 14.7369 23.424 12.0645 23.0818 10.7837Z" fill="#E8E7EA"/>
</g>
<defs>
<clipPath id="clip0_786_6762">
<rect width="16.3743" height="11.4968" fill="white" transform="translate(7.04968 8.98846)"/>
</clipPath>
</defs>
</svg>
